<svg xmlns="http://www.w3.org/2000/svg" xmlns:xlink="http://www.w3.org/1999/xlink" version="1.1" width="1000" height="1000" viewBox="0 0 1000 1000" xml:space="preserve">
<desc>Created with Fabric.js 3.5.0</desc>
<defs>
</defs>
<rect x="0" y="0" width="100%" height="100%" fill="rgba(255,255,255,0)"/>
<g transform="matrix(2.5 0 0 2.5 496.9325 496.9325)" id="776631">
<g style="" vector-effect="non-scaling-stroke">
		<g transform="matrix(0.1333 0 0 -0.1333 1.7587 -3.9976)">
<path style="stroke: none; stroke-width: 1; stroke-dasharray: none; stroke-linecap: butt; stroke-dashoffset: 0; stroke-linejoin: miter; stroke-miterlimit: 4; is-custom-font: none; font-file-url: none; fill: rgb(0,0,0); fill-rule: nonzero; opacity: 1;" transform=" translate(-1513.4717, -1529.7075)" d="M 1462 2600 c -18 -17 -42 -30 -55 -31 c -66 -2 -158 -20 -217 -41 c -111 -40 -270 -116 -270 -129 c 0 -5 -6 -9 -13 -9 c -7 0 -37 -23 -67 -51 l -55 -51 l -100 7 c -175 11 -229 16 -237 21 c -13 8 -58 -24 -58 -40 c 0 -8 18 -30 40 -50 c 22 -20 40 -43 40 -51 c 0 -18 29 -49 62 -66 c 13 -6 36 -27 51 -45 c 16 -19 35 -34 42 -34 c 8 0 29 -13 47 -29 c 18 -15 47 -36 63 -45 c 17 -9 46 -26 65 -38 c 67 -39 105 -58 120 -58 c 9 0 20 -4 26 -9 c 5 -5 54 -23 108 -40 c 112 -35 126 -44 126 -77 c 0 -49 32 -110 86 -160 c 57 -54 64 -68 39 -78 c -22 -8 -55 -84 -55 -126 c 0 -43 30 -101 72 -139 l 31 -28 l -21 -31 c -12 -16 -22 -34 -22 -40 c 0 -5 -6 -14 -13 -20 c -38 -32 -247 154 -307 274 c -19 38 -35 71 -36 74 c 0 3 -3 12 -6 20 c -26 78 -27 82 -12 70 c 20 -18 19 4 -3 37 c -10 15 -12 24 -5 20 c 6 -5 12 -4 12 2 c 0 6 -7 11 -15 11 c -13 0 -15 9 -11 40 c 2 22 1 40 -4 40 c -27 0 -15 -136 21 -243 c 49 -147 167 -282 308 -356 c 74 -38 81 -40 81 -22 c 0 41 25 73 87 110 c 62 37 63 39 36 44 c -42 9 -120 62 -136 94 c -8 15 -18 42 -21 59 c -9 41 25 82 107 128 c 51 29 58 36 42 42 c -96 32 -174 89 -202 149 l -14 30 l 6 -30 c 4 -16 14 -41 23 -55 c 9 -14 15 -28 14 -32 c -1 -5 1 -7 6 -6 c 4 1 33 -13 65 -31 c 56 -32 73 -47 40 -34 c -11 4 -14 3 -9 -5 c 13 -21 -8 -13 -61 23 c -48 32 -67 53 -73 80 c -1 6 -7 21 -12 35 c -16 43 11 138 35 124 c 7 -4 9 -4 5 1 c -9 10 58 87 84 97 c 12 5 17 4 13 -2 c -4 -6 6 -10 22 -10 c 66 0 73 -7 73 -71 c 0 -61 -8 -74 -40 -64 c -27 8 -25 33 2 37 c 12 2 23 9 26 16 c 2 8 -9 12 -40 11 l -43 -2 l 40 -7 c 39 -7 39 -7 7 -9 c -18 0 -47 -8 -65 -16 c -29 -14 -30 -14 -13 0 c 11 8 16 15 10 15 c -26 1 35 30 63 30 c 18 0 33 5 33 10 c 0 21 -68 10 -100 -17 c -41 -34 -50 -60 -33 -92 c 7 -14 13 -31 13 -38 c 0 -16 52 -54 120 -88 c 30 -15 58 -33 62 -39 c 4 -6 9 130 10 302 c 2 171 1 312 -2 312 c -4 0 -11 -5 -17 -11 c -7 -7 -19 -2 -42 16 l -31 27 l 0 -36 c 0 -23 5 -39 15 -42 c 8 -4 15 -10 15 -16 c 0 -5 -4 -6 -10 -3 c -5 3 -10 2 -10 -3 c 0 -21 -45 -21 -67 0 c -19 18 -23 32 -23 79 c 0 51 -4 63 -31 94 c -18 20 -29 38 -27 41 c 9 8 150 35 156 29 c 3 -3 0 -11 -6 -17 c -7 -7 -12 -18 -12 -26 c 0 -9 10 -5 31 12 c 55 47 132 31 159 -34 c 10 -24 10 -33 0 -45 c -15 -18 -30 -19 -30 -2 c 0 9 -11 12 -35 9 c -51 -6 -83 5 -91 31 c -7 20 -8 19 -16 -12 c -13 -48 7 -66 72 -62 c 33 2 50 -1 50 -9 c 0 -7 15 1 34 17 c 39 32 46 69 22 116 c -17 31 -16 31 56 16 c 61 -13 95 -28 82 -38 c -34 -23 -54 -67 -54 -118 c 0 -48 -4 -58 -30 -83 c -33 -31 -69 -36 -71 -10 c -2 21 -2 20 6 68 l 7 43 l -27 -25 c -15 -14 -33 -22 -41 -19 c -8 3 -14 0 -14 -7 c 0 -6 5 -8 10 -5 c 6 4 10 -17 10 -55 l 0 -62 l 33 7 c 43 10 113 43 129 62 c 7 9 11 38 10 75 c -2 54 0 62 27 87 c 16 15 47 33 70 39 c 35 11 47 10 98 -8 c 138 -51 150 -31 19 31 c -45 21 -122 50 -171 65 c -80 25 -106 28 -240 28 c -127 1 -163 -3 -234 -22 c -95 -26 -185 -62 -251 -101 c -73 -42 -21 -38 105 9 c 213 80 311 97 459 79 c 91 -11 198 -39 226 -60 c 17 -12 16 -12 -110 22 c -148 40 -301 35 -452 -13 l -67 -22 l 38 -17 c 21 -9 48 -29 60 -45 c 19 -24 22 -37 17 -75 c -5 -37 -2 -51 14 -71 c 20 -26 69 -50 127 -62 l 32 -7 l 4 48 c 2 26 3 -73 3 -222 c -1 -234 -1 -242 -3 -59 l -3 212 l -48 12 c -107 26 -152 73 -152 159 c -1 64 -48 101 -129 101 c -65 0 -64 -6 3 -14 c 86 -12 111 -36 119 -119 c 3 -32 11 -65 18 -74 c 11 -13 5 -22 -36 -59 c -28 -24 -47 -43 -43 -44 c 4 0 23 14 43 31 c 42 37 47 25 6 -15 c -25 -24 -34 -27 -56 -19 l -26 8 l 51 42 c 29 23 46 44 40 48 c -6 3 -8 11 -4 17 c 3 5 -11 -2 -32 -16 c -86 -58 -98 -65 -103 -60 c -8 7 56 60 92 76 c 15 7 27 16 27 20 c 0 14 -10 9 -70 -34 c -33 -23 -63 -38 -67 -34 c -9 9 29 40 79 63 c 21 10 38 21 38 26 c 0 9 -49 -15 -102 -50 c -20 -14 -42 -22 -48 -18 c -12 7 105 85 128 85 c 14 0 15 9 3 29 c -7 11 -24 6 -86 -28 c -43 -23 -80 -39 -83 -36 c -9 9 29 33 90 57 c 31 12 54 27 51 32 c -3 5 6 7 21 4 c 14 -3 26 -2 26 3 c 0 15 -38 29 -77 27 l -38 -1 l 45 -6 l 45 -6 l -52 -7 c -28 -4 -74 -18 -102 -32 c -52 -27 -81 -33 -81 -17 c 0 15 29 33 41 25 c 7 -4 9 -3 5 4 c -6 10 48 35 116 53 c 28 7 27 8 -12 3 c -25 -3 -70 -16 -102 -31 c -31 -14 -60 -23 -65 -21 c -4 3 -16 -3 -25 -13 c -12 -13 -13 -19 -5 -23 c 7 -4 -1 -4 -16 -1 c -16 3 -26 2 -23 -3 c 5 -8 -60 -22 -177 -38 c -67 -9 -148 3 -188 29 l -34 22 l 150 7 c 83 3 182 12 220 19 c 39 7 80 13 92 13 c 11 1 19 4 17 7 c -6 10 46 30 59 23 c 9 -5 9 -4 1 5 c -8 9 -21 8 -54 -4 c -56 -20 -97 -28 -137 -29 c -18 -1 -33 -5 -33 -10 c 0 -5 -63 -7 -143 -4 c -147 5 -213 21 -245 61 c -14 16 -8 42 7 32 c 19 -11 439 -34 491 -26 c 34 5 74 19 104 39 c 133 86 316 136 491 136 c 177 -1 342 -45 481 -130 c 37 -24 79 -40 114 -45 c 56 -9 364 5 459 20 c 28 4 53 6 55 3 c 12 -11 -18 -43 -57 -64 c -35 -18 -64 -22 -173 -26 c -140 -5 -230 6 -323 39 c -71 24 -77 18 -9 -9 c 85 -34 133 -42 306 -49 c 89 -3 162 -10 162 -14 c 0 -15 -60 -40 -108 -46 c -76 -9 -329 28 -317 47 c 7 12 -122 70 -184 83 c -43 9 -55 9 -59 -1 c -2 -6 -11 -12 -21 -12 c -29 0 -54 -26 -56 -57 c -1 -24 3 -29 23 -31 c 27 -2 142 -70 142 -83 c 0 -15 -14 -10 -65 24 c -73 49 -81 50 -103 20 l -20 -27 l 54 -39 c 30 -21 54 -40 54 -43 c 0 -14 -32 1 -69 32 c -23 20 -44 34 -47 31 c -3 -3 15 -20 40 -38 c 25 -18 46 -36 46 -40 c 0 -5 -32 -18 -72 -30 l -72 -22 l -28 34 c -28 34 -36 59 -18 59 c 6 0 10 -4 10 -8 c 0 -4 14 -23 30 -42 l 31 -35 l -27 43 c -23 36 -25 45 -13 53 c 21 13 23 12 47 -21 c 12 -16 32 -35 45 -41 c 14 -7 7 4 -20 32 c -42 44 -42 44 -24 69 c 12 15 20 49 23 88 c 2 34 1 57 -4 50 c -4 -7 -8 -35 -8 -61 c 0 -39 -5 -53 -26 -72 c -25 -24 -103 -55 -143 -58 c -21 -1 -21 -6 -22 -217 c -1 -118 -4 -204 -8 -190 c -7 23 -8 22 -12 -11 c -5 -43 -5 -43 99 10 c 76 39 112 80 112 131 c 0 52 -52 100 -110 100 c -22 0 -40 -4 -40 -10 c 0 -5 18 -10 39 -10 c 22 0 43 -5 47 -12 c 5 -8 2 -9 -10 -5 c -10 4 -33 7 -52 7 c -31 0 -34 2 -34 30 c 0 26 5 31 30 37 c 17 3 30 11 30 17 c 0 6 5 4 10 -4 c 9 -13 11 -13 19 -1 c 7 11 22 2 70 -44 c 72 -68 90 -114 70 -173 c -7 -20 -12 -40 -11 -45 c 1 -4 -16 -25 -39 -47 c -29 -28 -69 -50 -147 -81 c -136 -53 -180 -75 -214 -107 c -51 -47 -31 -86 67 -135 l 50 -25 l -3 104 c -3 88 -1 104 12 104 c 9 0 13 -6 10 -14 c -3 -8 -1 -17 5 -21 c 6 -3 11 -35 11 -71 c 0 -41 -4 -63 -10 -59 c -5 3 -10 -3 -10 -14 c 0 -19 2 -19 34 -6 c 67 28 104 57 121 92 c 16 33 16 38 1 70 c -9 19 -20 31 -26 28 c -11 -7 -50 16 -50 29 c 0 5 2 7 6 4 c 3 -3 20 -2 39 2 c 29 6 37 4 58 -19 c 35 -37 47 -64 47 -106 c 0 -81 -43 -121 -204 -192 c -82 -36 -116 -57 -138 -84 c -26 -32 -28 -39 -17 -57 c 7 -11 35 -33 63 -49 l 51 -29 l -3 93 c -3 78 -1 93 12 93 c 16 0 17 -5 16 -103 c 0 -37 2 -67 5 -67 c 10 0 80 47 92 61 c 28 34 26 65 -7 103 l -32 36 l 30 0 c 21 0 37 -8 51 -26 c 52 -67 -1 -154 -121 -198 c -68 -25 -110 -56 -133 -99 c -19 -36 -19 -37 -1 -54 c 18 -17 18 -17 9 1 c -15 28 6 74 45 98 c 18 11 36 18 39 15 c 3 -3 12 1 20 9 c 8 8 19 12 24 9 c 5 -4 9 -1 9 5 c 0 6 5 8 10 5 c 6 -3 10 -1 10 5 c 0 6 4 9 10 5 c 5 -3 28 11 52 32 c 40 35 41 35 13 4 c -16 -18 -69 -53 -117 -77 c -108 -56 -120 -80 -60 -116 l 27 -16 l -3 49 c -3 40 -1 49 13 49 c 14 0 15 -7 9 -46 c -7 -51 -2 -52 44 -11 c 20 19 33 75 14 63 c -5 -3 -9 1 -9 9 c 0 21 24 26 38 8 c 14 -16 21 -85 8 -78 c -4 3 -13 -2 -20 -11 c -7 -9 -36 -27 -63 -41 c -93 -46 -119 -83 -108 -155 l 7 -46 l 27 29 c 23 26 24 30 10 38 c -10 5 -21 9 -27 9 c -5 0 -11 6 -13 14 c -3 10 -2 10 6 -1 c 7 -10 10 -6 10 15 c 0 27 38 71 50 59 c 3 -3 -4 -12 -16 -21 c -29 -20 -28 -38 2 -58 c 25 -16 25 -16 19 18 c -3 20 -1 36 6 40 c 7 5 11 -5 11 -28 c 0 -20 4 -36 10 -36 c 14 0 30 35 30 64 c 0 35 18 42 31 13 c 16 -34 -1 -61 -64 -101 c -47 -30 -97 -80 -97 -97 c 0 -3 16 -23 35 -45 c 34 -38 34 -39 35 -13 c 0 14 -9 34 -20 44 c -24 22 -25 35 -5 61 c 14 18 14 18 8 -3 c -3 -15 3 -33 22 -54 c 19 -23 25 -39 20 -56 c -8 -35 2 -28 25 17 c 24 47 37 54 144 70 c 43 6 88 15 100 20 c 12 4 41 14 66 21 c 75 22 219 96 299 154 c 25 18 165 159 198 200 c 27 33 114 197 143 270 c 25 63 60 247 60 316 c 0 29 6 51 15 59 c 19 16 19 35 0 64 c -9 13 -18 39 -20 57 c -2 19 -9 59 -16 89 c -6 30 -14 71 -18 92 c -7 31 -56 128 -65 128 c -2 0 6 -33 19 -72 c 31 -98 55 -217 55 -274 c 0 -36 3 -45 14 -41 c 8 3 20 -1 26 -9 c 10 -11 8 -14 -12 -14 c -25 0 -25 -2 -31 -102 c -25 -455 -331 -819 -785 -934 c -52 -13 -114 -25 -138 -26 c -24 -1 -49 -7 -55 -15 c -23 -27 -50 -8 -49 35 c 1 15 2 15 15 -2 c 13 -17 15 -18 21 -2 c 3 9 4 26 1 37 c -5 20 -5 20 14 3 c 11 -10 17 -24 15 -31 c -4 -9 1 -12 17 -8 c 12 3 53 10 92 16 c 38 5 104 21 145 35 c 334 111 568 360 656 699 c 50 194 40 468 -25 632 c -23 58 -33 44 -15 -22 c 19 -70 42 -184 46 -224 c 2 -26 -1 -35 -14 -37 c -25 -3 -33 13 -47 99 c -7 42 -19 90 -28 105 c -15 26 -15 27 -9 2 c 9 -40 25 -131 31 -182 c 5 -35 11 -49 26 -53 c 24 -8 25 -21 0 -28 c -15 -3 -20 -21 -30 -95 c -37 -294 -207 -545 -461 -680 c -82 -44 -221 -95 -287 -106 c -36 -7 -42 -5 -48 14 c -4 13 -1 28 8 38 c 8 9 21 31 30 47 c 12 24 25 32 68 42 c 29 7 81 26 115 42 c 34 16 65 27 68 23 c 3 -3 6 -1 6 5 c 0 15 78 64 85 54 c 3 -5 -1 -12 -7 -14 c -8 -4 -9 -6 -2 -6 c 6 -1 17 6 24 15 c 8 8 9 14 4 13 c -24 -4 -19 5 31 52 c 47 44 75 60 68 37 c -5 -13 4 -9 18 9 c 10 12 10 14 1 9 c -7 -4 -15 -1 -18 9 c -5 12 -23 0 -78 -52 c -86 -81 -160 -127 -268 -165 c -76 -27 -150 -39 -119 -19 c 11 7 11 9 0 14 c -12 5 -12 6 0 6 c 11 1 11 4 2 15 c -15 18 2 56 25 56 c 8 0 13 4 10 9 c -3 5 1 14 9 21 c 8 7 15 19 15 27 c 0 8 16 21 35 29 c 33 13 122 65 154 89 c 39 29 151 148 151 160 c 0 15 60 85 72 85 c 15 0 -4 -29 -23 -35 c -10 -4 -24 -16 -30 -28 c -12 -22 -12 -22 10 -3 c 11 11 23 17 26 14 c 3 -3 -1 -11 -10 -18 c -16 -14 -20 -30 -7 -30 c 9 0 20 20 48 87 l 14 33 l -26 -11 c -40 -15 -41 -2 -1 14 c 34 15 56 55 42 77 c -4 6 -1 10 4 10 c 6 0 11 7 11 15 c 0 18 -26 20 -36 3 c -5 -8 -1 -9 12 -5 c 18 7 18 7 0 -8 c -14 -11 -16 -15 -5 -15 c 12 0 12 -2 -1 -10 c -13 -9 -13 -10 0 -10 c 11 -1 11 -3 -3 -11 c -27 -16 -29 -8 -15 52 c 6 30 11 60 9 67 c -1 7 10 13 26 13 c 24 2 24 2 6 6 c -20 4 -23 11 -24 56 c -1 46 -3 42 -10 -27 c -16 -154 -70 -280 -165 -385 c -77 -85 -241 -190 -277 -178 c -7 2 22 21 63 41 c 214 107 341 293 365 532 c 6 64 5 72 -12 78 c -14 6 -16 5 -5 -6 c 10 -10 8 -15 -10 -25 c -19 -10 -20 -12 -5 -13 c 10 0 17 -8 17 -20 c 0 -12 -7 -20 -17 -21 c -15 0 -15 -2 2 -9 c 11 -5 14 -9 7 -9 c -7 -1 -12 -12 -10 -28 c 4 -63 -61 -206 -135 -296 c -69 -84 -224 -190 -234 -160 c -3 7 -16 29 -29 49 l -25 37 l 34 36 c 38 39 77 110 77 138 c 0 39 -21 89 -49 120 l -30 31 l 32 22 c 18 12 44 39 58 59 c 24 33 32 53 56 136 c 7 27 15 32 74 46 c 112 29 269 94 326 135 c 17 13 36 24 42 24 c 6 0 28 16 50 35 c 21 19 45 35 53 35 c 8 0 32 18 53 40 c 21 22 44 40 49 40 c 19 0 66 63 56 75 c -10 12 6 35 25 35 c 19 1 56 39 61 64 c 7 39 -24 49 -125 42 c -47 -3 -130 -9 -183 -12 l -98 -6 l -47 39 c -153 127 -333 202 -570 238 c -28 5 -50 15 -62 31 c -25 32 -49 30 -89 -6 z m 63 -11 c 8 -35 2 -33 125 -49 c 103 -13 238 -53 322 -96 c 98 -49 232 -149 223 -164 c -3 -5 -33 13 -67 40 c -113 91 -278 164 -441 195 c -116 22 -145 20 -159 -10 c -14 -32 -22 -31 -37 1 c -12 26 -13 27 -79 20 c -199 -19 -416 -108 -541 -221 c -21 -20 -42 -32 -45 -26 c -12 19 106 107 219 163 c 114 57 303 108 400 108 c 29 0 35 5 46 35 c 16 43 25 44 34 4 z m -45 -100 c 7 -11 10 -22 8 -23 c -2 -2 -49 -8 -104 -15 c -119 -14 -344 -88 -344 -113 c 0 -5 -7 -8 -16 -8 c -9 0 -28 -9 -42 -19 c -34 -24 -43 -26 -53 -10 c -5 8 8 24 36 46 c 24 18 47 33 51 33 c 4 0 15 6 23 13 c 29 25 173 78 260 97 c 120 26 167 26 181 -1 z m 275 -7 c 105 -29 169 -56 256 -109 c 76 -46 99 -73 62 -73 c -10 0 -52 18 -93 39 c -102 52 -256 100 -359 112 c -47 5 -86 11 -88 12 c -1 2 5 14 14 26 c 15 22 21 23 77 18 c 34 -4 93 -15 131 -25 z m 235 -270 c 53 -26 76 -52 47 -52 c -8 0 -39 11 -69 25 c -30 14 -77 27 -104 30 l -49 4 l 45 -9 c 25 -5 73 -24 108 -41 c 50 -24 66 -28 77 -19 c 11 9 25 9 60 -4 c 26 -8 103 -23 173 -32 c 161 -21 160 -20 139 -41 c -11 -11 -39 -18 -83 -21 c -69 -5 -174 13 -174 28 c 0 5 -7 6 -17 3 c -10 -4 -14 -2 -10 4 c 8 13 -17 25 -37 17 c -8 -3 -29 2 -47 12 c -19 9 -41 18 -49 19 c -8 1 -46 16 -83 34 c -58 28 -72 32 -93 22 c -13 -6 -24 -15 -24 -21 c 0 -6 -4 -9 -10 -5 c -12 7 -2 36 18 53 c 9 6 34 12 56 13 c 37 1 38 2 16 10 c -19 7 -16 7 15 3 c 22 -3 65 -17 95 -32 z m -820 -6 c 0 -2 -34 -20 -76 -40 c -79 -37 -108 -40 -64 -5 c 32 25 140 60 140 45 z m 743 -47 c 71 -36 72 -37 65 -45 c -4 -3 -39 13 -80 35 c -86 48 -75 55 15 10 z m -752 -19 c -29 -16 -59 -35 -67 -41 c -7 -6 -21 -9 -31 -7 c -22 4 102 77 132 77 c 12 1 -1 -11 -34 -29 z m 736 -2 c 59 -31 77 -48 52 -48 c -16 0 -144 80 -128 80 c 8 0 42 -14 76 -32 z m -927 13 c 0 -6 -5 -13 -10 -16 c -6 -4 -7 -11 -4 -17 c 5 -8 1 -9 -10 -5 c -11 4 -15 3 -10 -4 c 4 -8 -1 -9 -16 -4 c -17 5 -21 4 -15 -6 c 6 -9 3 -11 -9 -6 c -9 4 -15 3 -12 -2 c 7 -11 -52 -23 -67 -14 c -5 3 -7 1 -4 -4 c 9 -14 -39 -23 -118 -23 c -47 0 -69 5 -86 19 c -29 24 -31 23 121 46 c 63 10 135 23 160 30 c 57 16 80 17 80 6 z m 903 -69 c 37 -24 48 -42 26 -42 c -16 0 -109 70 -109 81 c 0 11 26 -1 83 -39 z m 218 4 c 46 -19 119 -41 162 -51 c 42 -9 77 -21 77 -26 c 0 -27 -129 -23 -196 7 c -21 9 -45 16 -53 15 c -7 -1 -10 2 -7 8 c 4 6 -6 17 -21 25 c -31 16 -71 56 -56 56 c 5 0 47 -15 94 -34 z m -1091 4 c -98 -78 -219 -117 -292 -94 c -30 9 -20 21 28 34 c 39 11 47 11 56 -1 c 8 -12 9 -12 6 0 c -3 11 21 24 86 47 c 50 17 102 32 116 32 l 25 2 l -25 -20 z m 839 -27 c 37 -25 49 -39 38 -41 c -16 -3 -106 56 -107 71 c 0 14 15 7 69 -30 z m 188 7 c 26 -16 44 -30 40 -30 c -13 0 -85 39 -92 50 c -10 16 1 12 52 -20 z m -997 9 c -24 -16 -89 -49 -97 -49 c -14 0 82 58 97 59 c 13 1 13 0 0 -10 z m 193 -43 c -37 -35 -63 -46 -63 -26 c 0 6 4 10 9 10 c 4 0 25 14 46 30 c 51 40 56 31 8 -14 z m -157 22 c 4 -7 3 -8 -4 -4 c -7 4 -12 3 -12 -2 c 0 -12 -123 -87 -176 -108 c -31 -12 -46 -13 -68 -4 c -17 6 -25 14 -20 19 c 17 16 113 43 126 35 c 7 -4 10 -3 5 1 c -4 5 23 23 60 41 c 79 37 80 38 89 22 z m 967 -19 c 34 -18 91 -42 126 -54 c 71 -24 86 -39 46 -49 c -18 -5 -44 1 -82 19 c -83 37 -174 95 -168 106 c 8 13 8 13 78 -22 z m -698 9 c 14 -6 25 -15 25 -19 c 0 -5 -17 -26 -38 -49 c -22 -22 -37 -42 -35 -45 c 1 -3 -2 -1 -8 4 c -8 7 -1 21 25 47 c 20 20 34 39 32 42 c -3 2 -19 -12 -36 -32 c -18 -20 -39 -36 -49 -36 c -13 0 -13 3 4 18 c 11 9 31 30 45 45 c 20 23 21 27 6 21 c -14 -5 -17 -4 -12 4 c 9 15 9 15 41 0 z m 653 -37 c 31 -21 84 -53 116 -72 c 58 -32 59 -33 32 -40 c -42 -12 -83 3 -184 68 c -44 28 -52 36 -42 48 c 7 8 16 12 21 9 c 5 -3 9 -1 9 5 c 0 5 -6 12 -12 14 c -7 3 -9 6 -5 6 c 4 1 34 -16 65 -38 z m -895 9 c 13 -13 18 -24 12 -28 c -90 -63 -185 -105 -220 -96 c -35 9 -32 16 19 42 c 24 13 70 41 103 63 c 32 21 59 39 61 39 c 2 0 13 -9 25 -20 z m 357 -61 c 0 -46 -11 -62 -25 -38 c -4 6 -13 8 -21 5 c -18 -7 -17 14 1 38 c 8 11 15 27 15 35 c 0 9 -9 -3 -21 -26 c -12 -24 -27 -43 -35 -43 c -19 0 -18 7 6 37 c 11 14 20 31 20 37 c 0 6 -7 -1 -16 -14 c -10 -14 -24 -31 -32 -37 c -31 -25 -31 -12 -1 31 c 31 43 31 43 70 33 c 39 -9 39 -10 39 -58 z m 170 52 c 0 -4 11 -25 25 -45 c 17 -25 20 -36 11 -36 c -15 0 -39 32 -50 68 c -5 13 -3 22 3 22 c 6 0 11 -4 11 -9 z m -13 -38 c 9 -21 19 -41 21 -45 c 2 -4 -5 -6 -15 -6 c -10 0 -25 -1 -33 -3 c -11 -3 -16 7 -18 44 c -4 60 20 65 45 10 z m -502 -35 c -52 -46 -106 -78 -132 -78 c -40 0 -25 18 65 73 c 92 58 130 61 67 5 z m 933 -42 c 37 -19 42 -36 9 -36 c -29 0 -75 26 -133 74 c -65 55 -39 67 35 17 c 31 -21 71 -46 89 -55 z m -849 58 c 29 19 5 -17 -43 -63 c -45 -42 -61 -51 -90 -51 c -20 0 -36 5 -36 10 c 0 6 4 10 8 10 c 5 0 37 25 72 55 c 41 36 66 51 71 44 c 4 -6 12 -8 18 -5 z m 720 -34 c 25 -22 57 -48 71 -59 l 25 -20 l -38 -1 c -32 0 -46 8 -93 51 c -30 29 -54 55 -54 58 c 0 21 49 5 89 -29 z m -657 5 c -34 -55 -123 -121 -145 -108 c -19 11 100 119 130 119 c 12 0 19 -5 15 -11 z m 608 -48 c 59 -53 62 -57 36 -57 c -26 0 -107 64 -126 100 c -19 36 29 13 90 -43 z m -123 33 c 14 0 126 -109 115 -111 c -39 -7 -109 47 -139 106 c -10 21 -11 26 -2 18 c 7 -7 19 -13 26 -13 z m -447 -30 c -32 -45 -79 -80 -108 -80 c -25 0 -25 2 23 52 c 63 66 64 67 86 61 c 18 -5 18 -6 -1 -33 z m 378 -81 c 27 -9 30 -14 22 -30 c -14 -25 -36 -24 -50 1 c -12 23 -8 24 23 9 c 21 -10 21 -10 3 5 c -23 18 -86 22 -86 5 c 0 -7 9 -9 21 -6 c 15 4 19 1 17 -11 c -4 -22 -38 -22 -52 1 c -21 33 38 49 102 26 z m -288 -23 c 0 -18 -30 -30 -43 -17 c -9 9 11 23 41 30 c 1 1 2 -5 2 -13 z m 297 -53 c 4 -11 -61 -73 -76 -73 c -17 0 -33 29 -26 49 c 3 10 17 22 30 25 c 14 4 25 11 25 16 c 0 12 43 -3 47 -17 z m -281 8 c 5 -5 18 -11 28 -13 c 19 -3 30 -31 21 -55 c -6 -17 -61 3 -79 29 c -23 33 2 65 30 39 z m 1088 -198 c -3 -48 -10 -107 -20 -173 c -8 -49 -60 -202 -82 -242 c -10 -18 -34 -59 -52 -92 c -38 -66 -178 -214 -260 -273 c -93 -67 -249 -136 -357 -158 c -42 -9 -80 -18 -84 -20 c -13 -8 -39 6 -39 21 c 0 8 7 26 16 39 c 9 13 17 32 18 42 c 2 13 19 21 63 30 c 91 18 180 50 261 93 c 40 22 78 37 86 34 c 8 -3 17 -1 21 5 c 4 7 -1 9 -12 5 c -11 -4 -6 4 12 20 c 17 14 36 23 43 21 c 7 -3 11 -1 8 4 c -6 9 67 81 82 81 c 4 0 -8 -13 -25 -28 c -18 -15 -33 -32 -33 -37 c 0 -5 16 6 35 25 c 19 18 32 37 29 42 c -8 12 16 39 27 32 c 5 -3 9 -1 9 4 c 0 6 14 24 30 42 c 17 18 30 38 30 46 c 0 7 6 17 13 21 c 39 24 114 240 132 383 c 7 52 29 95 45 85 c 4 -2 6 -26 4 -52 z m -874 -85 c 22 -13 42 -29 45 -37 c 4 -10 -1 -10 -19 3 c -36 23 -41 20 -17 -10 c 22 -28 19 -41 -19 -71 c -23 -19 -42 13 -39 68 c 2 25 -1 50 -5 57 c -11 19 11 14 54 -10 z m -149 -40 c 3 -35 -4 -74 -15 -80 c -6 -4 -21 3 -34 16 c -21 20 -22 26 -11 44 c 12 19 25 27 52 31 c 4 0 7 -5 8 -11 z m -157 -112 c 9 -14 34 -38 56 -52 c 22 -15 38 -29 35 -32 c -10 -10 -89 55 -107 89 c -10 18 -17 47 -17 64 c 1 29 2 28 8 -7 c 4 -20 15 -48 25 -62 z m 305 -171 c 17 -20 31 -39 31 -43 c 0 -4 -10 5 -21 21 c -11 15 -24 25 -29 22 c -4 -2 -15 4 -25 15 c -15 17 -16 20 -3 20 c 9 0 30 -16 47 -35 z m -24 -50 c 0 -16 -6 -30 -12 -32 c -9 -3 -13 7 -13 32 c 0 25 4 35 13 33 c 6 -3 12 -17 12 -33 z m -115 3 c 0 -13 -5 -30 -10 -38 c -14 -23 -44 10 -35 39 c 9 29 45 28 45 -1 z" stroke-linecap="round"/>
</g>
		<g transform="matrix(0.1333 0 0 -0.1333 44.5226 -102.0548)">
<path style="stroke: none; stroke-width: 1; stroke-dasharray: none; stroke-linecap: butt; stroke-dashoffset: 0; stroke-linejoin: miter; stroke-miterlimit: 4; is-custom-font: none; font-file-url: none; fill: rgb(0,0,0); fill-rule: nonzero; opacity: 1;" transform=" translate(-1833.9396, -2265.4054)" d="M 1795 2280 c -12 -4 -27 -15 -34 -24 c -12 -14 -11 -16 5 -10 c 10 4 24 11 30 15 c 6 5 35 13 65 18 l 54 9 l -50 0 c -27 0 -59 -3 -70 -8 z" stroke-linecap="round"/>
</g>
		<g transform="matrix(0.1333 0 0 -0.1333 28.2791 -66.3214)">
<path style="stroke: none; stroke-width: 1; stroke-dasharray: none; stroke-linecap: butt; stroke-dashoffset: 0; stroke-linejoin: miter; stroke-miterlimit: 4; is-custom-font: none; font-file-url: none; fill: rgb(0,0,0); fill-rule: nonzero; opacity: 1;" transform=" translate(-1712.1014, -1997.4006)" d="M 1680 2034 c 0 -12 58 -79 64 -74 c 2 3 -11 23 -30 44 c -19 22 -34 35 -34 30 z" stroke-linecap="round"/>
</g>
		<g transform="matrix(0.1333 0 0 -0.1333 -80.5103 30.3879)">
<path style="stroke: none; stroke-width: 1; stroke-dasharray: none; stroke-linecap: butt; stroke-dashoffset: 0; stroke-linejoin: miter; stroke-miterlimit: 4; is-custom-font: none; font-file-url: none; fill: rgb(0,0,0); fill-rule: nonzero; opacity: 1;" transform=" translate(-896.2697, -1271.9233)" d="M 552 1879 c -28 -97 -41 -185 -41 -288 c -2 -420 213 -773 573 -942 c 94 -44 136 -56 136 -40 c 0 6 -10 11 -21 11 c -27 0 -136 55 -230 115 c -75 48 -185 157 -267 264 c -30 40 -92 162 -92 183 c 0 9 -4 19 -9 22 c -25 16 -83 361 -64 380 c 3 3 14 1 23 -4 c 14 -7 20 -28 25 -82 c 7 -78 29 -190 44 -223 c 5 -11 17 -40 26 -65 c 9 -25 24 -53 33 -64 c 10 -10 17 -21 16 -25 c -3 -14 29 -50 39 -44 c 6 3 7 1 3 -5 c -8 -14 10 -52 26 -52 c 6 0 5 7 -3 18 c -11 14 -10 13 9 -2 c 12 -11 22 -26 22 -34 c 0 -9 2 -13 5 -10 c 3 2 25 -15 49 -38 c 101 -96 246 -183 365 -218 c 86 -25 83 -19 -7 18 c -360 149 -568 413 -607 774 c -6 56 -10 64 -34 74 l -26 10 l 27 10 c 22 8 27 16 33 61 c 3 29 11 76 16 105 c 6 30 9 56 6 58 c -5 6 -23 -64 -32 -128 c -5 -29 -16 -54 -31 -68 l -23 -23 l -6 25 c -4 13 6 82 20 152 c 30 147 29 183 -3 75 z" stroke-linecap="round"/>
</g>
		<g transform="matrix(0.1333 0 0 -0.1333 -83.0138 34.7195)">
<path style="stroke: none; stroke-width: 1; stroke-dasharray: none; stroke-linecap: butt; stroke-dashoffset: 0; stroke-linejoin: miter; stroke-miterlimit: 4; is-custom-font: none; font-file-url: none; fill: rgb(0,0,0); fill-rule: nonzero; opacity: 1;" transform=" translate(-877.5079, -1239.4294)" d="M 517 1898 c -20 -55 -34 -114 -42 -191 c -3 -21 -14 -51 -25 -67 c -24 -34 -25 -38 -3 -62 c 9 -10 18 -31 19 -46 c 28 -301 124 -527 299 -705 c 125 -128 314 -232 489 -272 c 96 -22 92 -13 -6 14 c -339 92 -600 340 -707 672 c -28 86 -51 220 -51 297 c 0 55 -2 62 -20 62 c -11 0 -20 5 -20 10 c 0 6 8 10 19 10 c 15 0 19 11 24 78 c 4 42 15 113 27 156 c 22 89 21 109 -3 44 z" stroke-linecap="round"/>
</g>
		<g transform="matrix(0.1333 0 0 -0.1333 106.7502 1.4719)">
<path style="stroke: none; stroke-width: 1; stroke-dasharray: none; stroke-linecap: butt; stroke-dashoffset: 0; stroke-linejoin: miter; stroke-miterlimit: 4; is-custom-font: none; font-file-url: none; fill: rgb(0,0,0); fill-rule: nonzero; opacity: 1;" transform=" translate(-2300.6519, -1488.8619)" d="M 2354 1847 c 4 -47 -6 -53 -18 -12 c -3 11 -3 7 -1 -10 c 22 -153 26 -233 16 -320 c -17 -143 -64 -278 -127 -362 c -28 -37 -29 -39 -9 -47 c 11 -4 15 0 13 12 c -2 10 2 16 11 14 c 9 -2 11 3 7 14 c -6 15 -4 15 11 3 c 10 -7 15 -10 11 -5 c -4 5 -1 21 7 36 c 8 15 12 30 9 32 c -2 3 2 11 10 17 c 8 7 12 19 9 27 c -3 8 0 14 6 14 c 6 0 11 -6 11 -12 c 0 -9 4 -8 10 2 c 7 10 5 18 -5 26 c -12 9 -12 13 0 31 c 8 11 11 24 7 28 c -4 5 2 5 12 1 c 16 -5 17 -4 6 9 c -7 9 -9 22 -5 32 c 5 10 7 22 6 27 c -1 5 1 16 5 25 c 7 15 13 62 16 123 c 1 15 5 25 8 23 c 4 -2 6 -20 5 -39 c -1 -20 2 -36 6 -36 c 5 0 9 23 9 51 c 0 31 -4 48 -10 44 c -5 -3 -10 1 -10 9 c 0 9 5 16 10 16 c 21 0 -1 185 -29 250 c -10 22 -11 18 -7 -23 z" stroke-linecap="round"/>
</g>
		<g transform="matrix(0.1333 0 0 -0.1333 -72.5582 23.725)">
<path style="stroke: none; stroke-width: 1; stroke-dasharray: none; stroke-linecap: butt; stroke-dashoffset: 0; stroke-linejoin: miter; stroke-miterlimit: 4; is-custom-font: none; font-file-url: none; fill: rgb(0,0,0); fill-rule: nonzero; opacity: 1;" transform=" translate(-955.8973, -1321.9279)" d="M 641 1808 c -19 -82 -26 -188 -12 -188 c 6 0 11 -7 11 -15 c 0 -8 -4 -15 -10 -15 c -5 0 -10 -17 -9 -37 c 0 -21 3 -32 6 -25 c 8 20 19 14 19 -10 c 1 -13 3 -37 7 -55 c 3 -20 1 -34 -6 -36 c -9 -3 -8 -8 2 -18 c 9 -9 11 -9 7 -1 c -4 6 -3 12 2 12 c 8 0 21 -43 23 -77 c 1 -5 5 -16 11 -26 c 6 -13 6 -23 -3 -33 c -10 -12 -9 -13 5 -8 c 9 4 16 3 14 -2 c -1 -5 4 -20 12 -34 c 8 -14 15 -31 16 -39 c 2 -8 6 -17 11 -20 c 4 -3 14 -18 22 -33 c 8 -16 19 -28 25 -28 c 6 0 4 -5 -4 -10 c -13 -8 -12 -10 3 -10 c 15 0 22 -11 18 -32 c 0 -5 6 -8 15 -8 c 10 0 14 -6 11 -14 c -4 -11 -1 -13 10 -9 c 12 5 14 3 8 -7 c -5 -9 -4 -11 3 -6 c 7 4 12 1 12 -9 c 0 -10 5 -13 12 -9 c 7 5 9 2 5 -9 c -3 -8 1 -21 9 -27 c 8 -7 14 -9 14 -5 c 0 5 8 1 18 -8 c 9 -8 19 -15 22 -15 c 16 0 59 -26 54 -34 c -3 -5 -2 -7 3 -6 c 14 4 73 -38 65 -47 c -4 -5 -2 -5 5 -1 c 13 7 63 -13 63 -26 c 0 -5 5 -6 10 -3 c 6 4 22 -1 37 -10 c 14 -9 35 -18 47 -20 c 11 -1 35 -5 51 -9 c 17 -4 -4 6 -45 22 c -332 128 -525 360 -571 689 c -10 73 -6 213 8 286 c 5 27 4 30 -8 20 c -13 -10 -14 -7 -11 22 c 6 52 -3 42 -17 -17 z" stroke-linecap="round"/>
</g>
		<g transform="matrix(0.1333 0 0 -0.1333 107.2048 -39.0205)">
<path style="stroke: none; stroke-width: 1; stroke-dasharray: none; stroke-linecap: butt; stroke-dashoffset: 0; stroke-linejoin: miter; stroke-miterlimit: 4; is-custom-font: none; font-file-url: none; fill: rgb(0,0,0); fill-rule: nonzero; opacity: 1;" transform=" translate(-2304.0425, -1792.6443)" d="M 2310 1799 c 8 -28 7 -31 -10 -26 c -11 3 -20 2 -20 -3 c 0 -4 12 -10 26 -13 c 22 -4 25 -2 20 17 c -3 11 -6 29 -6 39 c 0 9 -4 17 -9 17 c -6 0 -6 -12 -1 -31 z" stroke-linecap="round"/>
</g>
		<g transform="matrix(0.1333 0 0 -0.1333 68.3443 21.5949)">
<path style="stroke: none; stroke-width: 1; stroke-dasharray: none; stroke-linecap: butt; stroke-dashoffset: 0; stroke-linejoin: miter; stroke-miterlimit: 4; is-custom-font: none; font-file-url: none; fill: rgb(0,0,0); fill-rule: nonzero; opacity: 1;" transform=" translate(-2012.6656, -1337.9238)" d="M 2236 1770 c 3 -19 7 -43 9 -52 c 4 -21 -6 -23 -23 -6 c -9 9 -12 -6 -12 -69 c 0 -103 -36 -249 -86 -345 c -71 -138 -232 -274 -391 -333 c -21 -7 -30 -14 -20 -14 c 10 -1 15 -5 12 -11 c -8 -13 25 -1 45 16 c 13 11 15 9 15 -12 c 0 -22 -8 -27 -60 -44 c -33 -10 -52 -19 -42 -19 c 34 -2 177 61 249 108 c 77 51 168 141 207 204 c 13 21 26 35 29 32 c 3 -3 -9 -26 -27 -52 c -32 -46 -31 -62 7 -63 c 6 0 12 -4 12 -8 c 0 -14 -46 -53 -53 -46 c -11 11 -36 -16 -30 -32 c 3 -9 -1 -14 -12 -14 c -10 0 -13 -5 -9 -12 c 5 -8 2 -9 -10 -5 c -9 4 -15 3 -11 -2 c 6 -11 -42 -51 -62 -51 c -8 0 -11 -5 -8 -10 c 10 -16 89 46 172 134 c 56 59 85 102 120 173 c 25 52 43 97 39 100 c -3 3 -1 12 5 20 c 6 7 8 13 4 13 c -4 0 -2 6 4 14 c 6 7 13 34 15 59 c 2 25 7 50 11 56 c 5 8 -1 10 -18 6 c -14 -4 -28 -2 -31 4 c -5 7 5 11 26 12 l 33 2 l -35 7 c -30 6 -31 8 -9 9 c 18 1 28 8 32 21 c 3 11 1 20 -4 20 c -5 0 -9 -7 -9 -15 c 0 -9 -9 -15 -22 -14 c -17 1 -19 2 -5 6 c 9 2 17 11 17 19 c 0 8 7 14 15 14 c 11 0 15 11 15 40 c 0 23 -5 40 -11 40 c -7 0 -9 -9 -5 -24 c 5 -20 3 -23 -19 -18 c -14 2 -25 8 -25 13 c 0 5 7 6 15 3 c 10 -4 15 0 15 15 c 0 12 6 21 15 21 c 8 0 15 7 15 15 c 0 18 -16 20 -23 3 c -4 -8 -6 -7 -6 3 c -1 9 -9 19 -20 22 c -18 4 -19 -4 -23 -127 c -4 -114 -9 -143 -37 -224 c -18 -52 -30 -96 -27 -99 c 3 -3 8 6 12 21 c 6 26 15 32 27 19 c 4 -3 2 -12 -5 -20 c -6 -7 -8 -16 -5 -20 c 8 -7 -11 -33 -25 -33 c -5 0 -6 5 -2 12 c 5 8 2 9 -10 5 c -14 -5 -16 -3 -11 12 c 3 11 1 22 -4 26 c -6 3 -8 0 -5 -8 c 3 -8 -1 -14 -10 -14 c -12 0 -14 7 -9 26 c 8 34 12 38 23 21 c 9 -13 10 -13 11 0 c 1 8 1 18 0 23 c 0 4 3 7 8 7 c 11 0 44 117 36 130 c -9 15 -27 1 -21 -16 c 3 -8 1 -14 -4 -14 c -19 0 -10 39 11 51 c 17 9 20 8 14 -2 c -5 -8 -4 -10 3 -5 c 7 4 12 21 12 38 c 0 17 -3 28 -7 24 c -5 -4 -8 -13 -8 -19 c 0 -5 -4 -12 -10 -14 c -6 -2 -9 30 -7 86 c 3 75 6 89 19 84 c 12 -5 12 -7 1 -14 c -10 -7 -10 -9 2 -9 c 12 0 12 -2 1 -9 c -9 -6 -10 -11 -2 -15 c 6 -4 11 -12 11 -17 c 0 -6 -4 -8 -9 -5 c -5 4 -7 -3 -4 -14 c 3 -11 9 -20 14 -20 c 12 0 3 175 -10 197 c -8 14 -9 10 -5 -17 z m -31 -371 c 4 -5 -1 -19 -10 -29 c -10 -11 -14 -24 -10 -32 c 6 -10 5 -10 -5 -1 c -10 9 -10 15 -1 26 c 6 8 9 22 5 31 c -7 18 11 22 21 5 z m 96 -8 c -7 -5 -10 -14 -7 -20 c 4 -6 2 -11 -4 -11 c -7 0 -9 -8 -5 -20 c 5 -15 2 -20 -12 -21 c -11 0 -13 -3 -5 -6 c 10 -4 9 -8 -5 -19 c -10 -7 -13 -14 -6 -14 c 7 0 -1 -25 -21 -62 c -25 -47 -39 -64 -57 -66 c -13 -2 -30 -11 -36 -20 c -17 -21 -17 -11 0 19 c 29 54 54 89 59 83 c 10 -10 48 20 46 36 c -1 8 1 20 5 26 c 4 7 0 17 -8 24 c -11 9 -12 18 -4 38 c 12 31 20 37 51 39 c 16 2 19 0 9 -6 z m -141 -125 c 0 5 5 1 11 -9 c 6 -10 8 -21 5 -24 c -3 -4 -6 0 -6 8 c 0 7 -17 -11 -37 -41 c -46 -69 -126 -148 -201 -198 c -113 -77 -166 -94 -132 -42 c 9 13 11 13 21 0 c 9 -12 10 -11 6 8 c -5 23 8 31 16 10 c 4 -8 6 -7 6 3 c 1 9 8 22 16 29 c 12 10 18 10 32 -1 c 12 -10 15 -10 9 -1 c -11 19 18 44 34 29 c 8 -8 11 -8 7 -1 c -8 14 28 48 41 40 c 5 -3 16 2 23 12 c 13 16 12 16 -6 2 c -20 -14 -20 -14 -2 7 c 12 13 25 19 35 15 c 15 -5 16 -4 2 13 c -14 17 -13 18 9 12 c 18 -4 21 -3 12 6 c -15 15 -14 27 3 21 c 8 -3 17 0 22 7 c 4 8 3 10 -4 5 c -17 -11 -15 9 3 24 c 12 10 15 10 15 -1 c 0 -11 2 -11 10 1 c 6 9 5 17 -3 22 c -8 5 -6 8 7 8 c 12 0 16 5 12 16 c -9 23 3 37 20 23 c 8 -6 14 -8 14 -3 z" stroke-linecap="round"/>
</g>
		<g transform="matrix(0.1333 0 0 -0.1333 -70.6901 28.0916)">
<path style="stroke: none; stroke-width: 1; stroke-dasharray: none; stroke-linecap: butt; stroke-dashoffset: 0; stroke-linejoin: miter; stroke-miterlimit: 4; is-custom-font: none; font-file-url: none; fill: rgb(0,0,0); fill-rule: nonzero; opacity: 1;" transform=" translate(-969.8965, -1289.2072)" d="M 742 1703 c -1 -24 -7 -43 -13 -43 c -8 0 -8 -4 0 -14 c 15 -17 1 -28 -19 -15 c -23 13 -29 11 -27 -11 c 1 -11 5 -20 10 -20 c 5 0 7 7 3 15 c -4 13 -2 14 14 5 c 11 -6 20 -13 20 -16 c 0 -3 -6 -2 -12 2 c -10 6 -10 4 0 -8 c 10 -13 10 -17 0 -21 c -8 -4 -7 -6 5 -6 c 9 -1 17 -6 17 -12 c 0 -6 -8 -8 -17 -5 c -15 5 -14 3 2 -10 c 20 -15 19 -16 -5 -12 c -21 2 -24 8 -22 31 c 2 15 -1 27 -5 27 c -12 0 -17 -86 -6 -103 c 4 -6 8 -19 8 -27 c 1 -8 2 -25 3 -37 c 2 -24 18 -32 19 -10 c 0 6 3 19 5 27 c 3 8 3 12 1 8 c -10 -17 -22 -7 -18 14 c 3 12 -1 26 -8 30 c -7 5 -2 8 15 8 c 15 0 30 -5 34 -12 c 5 -8 2 -9 -9 -5 c -10 3 -17 2 -17 -3 c 0 -6 7 -10 16 -10 c 10 0 14 -6 10 -15 c -3 -8 0 -15 7 -16 c 7 0 3 -4 -8 -9 c -18 -8 -19 -9 -1 -9 c 12 -1 16 -6 12 -16 c -3 -8 0 -15 6 -15 c 6 0 8 -3 5 -7 c -4 -3 -2 -12 4 -20 c 9 -9 8 -13 0 -13 c -6 0 -11 -4 -11 -10 c 0 -5 6 -7 13 -4 c 9 3 18 -10 26 -38 c 7 -24 22 -55 33 -70 c 11 -16 16 -28 12 -28 c -4 0 0 -8 9 -18 c 10 -10 14 -22 10 -27 c -5 -4 -2 -5 5 -1 c 11 7 17 -5 13 -27 c -1 -5 3 -6 9 -2 c 5 3 10 2 10 -3 c 0 -13 -29 -24 -41 -16 c -5 3 -6 10 -3 16 c 4 6 2 8 -4 4 c -6 -3 -13 -2 -17 4 c -3 5 0 10 7 10 c 7 1 4 6 -8 13 c -12 7 -19 18 -16 26 c 3 9 0 11 -7 6 c -8 -4 -12 -2 -10 6 c 3 28 -1 40 -13 33 c -8 -5 -9 -2 -5 9 c 4 10 2 16 -6 14 c -7 -1 -11 6 -9 16 c 2 9 -2 17 -8 17 c -6 0 -8 5 -5 10 c 3 6 2 10 -3 10 c -6 0 -8 9 -5 20 c 4 13 -1 27 -13 36 c -11 9 -14 13 -7 10 c 6 -4 14 -2 17 3 c 6 9 -23 25 -31 17 c -8 -7 9 -56 18 -50 c 5 3 6 -2 3 -10 c -15 -39 130 -272 162 -259 c 12 4 12 8 -3 19 c -17 14 -17 14 2 12 c 11 -2 26 -9 34 -16 c 11 -11 11 -15 -4 -26 c -17 -12 -16 -14 6 -29 c 13 -10 20 -17 15 -17 c -5 0 -1 -9 9 -20 c 10 -11 21 -17 25 -15 c 4 3 10 -2 13 -10 c 7 -17 81 -65 101 -65 c 8 0 18 5 22 12 c 4 6 3 8 -4 5 c -13 -9 -44 2 -37 14 c 3 4 -5 13 -17 20 c -13 6 -33 20 -44 31 c -15 13 -24 16 -29 9 c -3 -6 -11 -8 -17 -5 c -6 4 -5 10 3 15 c 11 7 11 9 1 9 c -7 0 -10 5 -6 12 c 4 6 3 9 -2 5 c -5 -3 -17 1 -27 8 c -16 12 -16 13 -1 19 c 11 4 31 -7 59 -33 c 23 -21 62 -52 86 -67 c 24 -16 47 -33 51 -39 c 4 -5 8 -7 8 -3 c 0 4 24 -4 53 -17 c 100 -47 81 -25 -22 26 c -89 43 -117 64 -193 138 c -48 48 -88 94 -88 101 c 0 7 25 -14 56 -49 c 31 -34 84 -81 118 -105 c 62 -44 145 -90 151 -84 c 2 2 -25 18 -59 36 c -82 42 -209 149 -202 169 c 3 8 2 12 -3 8 c -11 -6 -52 41 -87 101 c -25 43 -45 63 -24 25 c 5 -11 10 -23 10 -28 c -1 -11 -20 23 -26 45 c -2 9 -18 58 -36 107 c -27 77 -32 110 -38 225 c -4 74 -7 116 -8 93 z" stroke-linecap="round"/>
</g>
		<g transform="matrix(0.1333 0 0 -0.1333 -97.9149 -19.4619)">
<path style="stroke: none; stroke-width: 1; stroke-dasharray: none; stroke-linecap: butt; stroke-dashoffset: 0; stroke-linejoin: miter; stroke-miterlimit: 4; is-custom-font: none; font-file-url: none; fill: rgb(0,0,0); fill-rule: nonzero; opacity: 1;" transform=" translate(-765.6398, -1645.9458)" d="M 760 1645 c 0 -43 3 -75 7 -72 c 7 7 5 139 -3 146 c -2 2 -4 -31 -4 -74 z" stroke-linecap="round"/>
</g>
		<g transform="matrix(0.1333 0 0 -0.1333 77.1295 -21.0679)">
<path style="stroke: none; stroke-width: 1; stroke-dasharray: none; stroke-linecap: butt; stroke-dashoffset: 0; stroke-linejoin: miter; stroke-miterlimit: 4; is-custom-font: none; font-file-url: none; fill: rgb(0,0,0); fill-rule: nonzero; opacity: 1;" transform=" translate(-2078.4763, -1657.9953)" d="M 2064 1678 c 1 -21 -1 -39 -5 -40 c -3 -2 -3 -12 2 -23 c 7 -19 8 -19 8 2 c 1 16 6 21 16 17 c 8 -4 15 -1 15 5 c 0 6 -5 10 -12 9 c -7 -2 -16 13 -20 32 l -7 35 l 3 -37 z" stroke-linecap="round"/>
</g>
		<g transform="matrix(0.1333 0 0 -0.1333 -63.0381 23.5902)">
<path style="stroke: none; stroke-width: 1; stroke-dasharray: none; stroke-linecap: butt; stroke-dashoffset: 0; stroke-linejoin: miter; stroke-miterlimit: 4; is-custom-font: none; font-file-url: none; fill: rgb(0,0,0); fill-rule: nonzero; opacity: 1;" transform=" translate(-1027.2781, -1322.9802)" d="M 804 1602 c 0 -57 -3 -91 -9 -89 c -5 2 -10 11 -10 20 c 0 26 -11 28 -13 2 c -1 -14 2 -25 7 -25 c 4 0 6 -10 4 -23 c -3 -13 7 -57 22 -98 c 14 -41 26 -79 27 -86 c 1 -7 11 -11 22 -10 c 17 2 21 -4 22 -26 c 1 -15 5 -31 9 -35 c 5 -4 5 1 2 11 c -4 9 -2 17 3 17 c 5 0 12 -11 16 -25 c 3 -14 11 -25 16 -25 c 6 0 8 -9 5 -19 c -3 -13 0 -18 8 -15 c 7 3 16 0 21 -7 c 4 -8 3 -10 -4 -5 c -7 4 -12 1 -12 -8 c 0 -9 3 -15 8 -15 c 19 3 33 -2 27 -11 c -3 -5 -3 -10 2 -10 c 4 0 24 -15 45 -33 c 71 -63 207 -135 257 -136 c 14 -1 -12 17 -65 44 c -111 56 -189 118 -249 198 c -91 120 -139 250 -155 416 l -8 86 l 2 -93 z m 41 -231 c 16 -42 18 -58 9 -58 c -7 0 -11 3 -9 7 c 2 3 -2 18 -10 33 c -16 31 -31 95 -19 84 c 5 -4 18 -34 29 -66 z" stroke-linecap="round"/>
</g>
		<g transform="matrix(0.1333 0 0 -0.1333 -45.8901 40.8499)">
<path style="stroke: none; stroke-width: 1; stroke-dasharray: none; stroke-linecap: butt; stroke-dashoffset: 0; stroke-linejoin: miter; stroke-miterlimit: 4; is-custom-font: none; font-file-url: none; fill: rgb(0,0,0); fill-rule: nonzero; opacity: 1;" transform=" translate(-1155.9026, -1193.5)" d="M 875 1602 c 3 -89 3 -93 -16 -87 c -22 7 -21 -4 8 -100 c 47 -154 181 -316 321 -388 c 39 -21 72 -33 72 -28 c 0 6 -5 11 -11 11 c -15 0 -156 98 -180 125 c -5 6 -21 24 -36 40 c -15 17 -29 30 -32 30 c -3 0 -5 3 -3 8 c 1 4 -2 7 -8 7 c -5 0 -10 7 -10 15 c 0 8 -5 14 -11 13 c -6 -2 -14 3 -16 10 c -3 6 1 12 8 12 c 8 0 3 7 -9 16 c -12 8 -19 20 -16 26 c 5 7 2 8 -6 3 c -10 -6 -12 -4 -7 9 c 4 10 3 15 -3 11 c -6 -3 -10 1 -10 9 c 0 9 -9 31 -20 51 c -13 24 -16 35 -7 35 c 8 0 7 4 -3 10 c -17 11 -25 63 -8 58 c 9 -3 22 -34 72 -175 c 6 -18 16 -33 22 -33 c 14 0 28 -29 25 -50 c -1 -12 0 -12 7 -1 c 12 16 27 -3 16 -21 c -4 -6 -3 -8 3 -5 c 6 4 21 -5 34 -19 c 38 -41 141 -112 203 -139 c 38 -17 60 -33 66 -50 c 5 -13 23 -37 40 -52 c 25 -22 30 -32 24 -53 c -10 -37 -5 -89 11 -121 c 8 -15 15 -41 15 -58 l 0 -29 l 33 31 c 30 30 31 33 14 46 c -10 7 -21 10 -24 7 c -14 -13 -43 29 -43 61 c 0 34 23 65 66 89 c 17 10 16 13 -21 31 c -45 23 -66 44 -90 88 l -17 30 l 7 -30 c 4 -16 14 -38 22 -48 c 9 -9 14 -20 10 -23 c -3 -3 -17 12 -31 34 c -15 24 -37 44 -56 51 c -57 20 -168 101 -232 170 c -97 104 -149 226 -168 387 l -9 79 l 4 -93 z" stroke-linecap="round"/>
</g>
		<g transform="matrix(0.1333 0 0 -0.1333 6.6208 -2.6704)">
<path style="stroke: none; stroke-width: 1; stroke-dasharray: none; stroke-linecap: butt; stroke-dashoffset: 0; stroke-linejoin: miter; stroke-miterlimit: 4; is-custom-font: none; font-file-url: none; fill: rgb(0,0,0); fill-rule: nonzero; opacity: 1;" transform=" translate(-1549.7159, -1519.9864)" d="M 1772 1670 c -22 -36 -94 -80 -164 -100 c -88 -27 -194 -74 -237 -107 c -31 -24 -62 -77 -60 -105 c 0 -7 5 -2 11 12 l 11 25 l 7 -25 c 5 -15 8 -18 9 -8 c 2 28 47 73 100 98 c 28 13 49 25 47 27 c -2 3 -23 -5 -46 -17 c -23 -12 -44 -19 -47 -16 c -6 6 60 37 142 66 c 28 10 67 25 88 34 c 20 9 37 14 37 11 c 0 -3 -18 -12 -40 -21 c -23 -9 -39 -19 -36 -21 c 3 -3 29 6 58 19 c 54 25 133 86 124 96 c -3 2 -1 13 5 24 c 14 26 7 32 -9 8 z" stroke-linecap="round"/>
</g>
		<g transform="matrix(0.1333 0 0 -0.1333 53.8401 7.5527)">
<path style="stroke: none; stroke-width: 1; stroke-dasharray: none; stroke-linecap: butt; stroke-dashoffset: 0; stroke-linejoin: miter; stroke-miterlimit: 4; is-custom-font: none; font-file-url: none; fill: rgb(0,0,0); fill-rule: nonzero; opacity: 1;" transform=" translate(-1903.828, -1443.2955)" d="M 1936 1658 c -3 -13 -6 -34 -6 -47 c 0 -37 -42 -159 -61 -180 c -23 -25 -71 -101 -63 -101 c 4 0 1 -7 -6 -15 c -7 -8 -8 -15 -2 -15 c 5 0 15 7 22 15 c 18 21 35 19 19 -2 c -7 -10 0 -7 16 7 c 17 14 31 28 33 33 c 2 4 8 5 13 1 c 5 -3 -11 -28 -35 -56 c -25 -27 -44 -54 -43 -60 c 1 -6 -4 -13 -12 -16 c -9 -3 -11 0 -6 8 c 5 8 4 11 -3 6 c -6 -4 -9 -13 -6 -21 c 7 -17 29 -8 58 24 c 10 11 24 18 30 14 c 6 -3 8 -3 4 1 c -3 4 6 20 20 35 c 43 45 62 71 54 72 c -4 0 2 5 13 10 c 19 9 18 9 -2 5 c -28 -5 -28 -5 -3 36 c 31 52 51 118 41 135 c -7 13 -9 13 -14 -1 c -4 -10 -3 -15 3 -11 c 6 3 10 1 10 -4 c 0 -6 -7 -11 -16 -11 c -12 0 -15 6 -10 24 c 5 20 3 23 -14 19 c -11 -3 -20 -10 -20 -17 c 0 -6 -3 -20 -6 -32 c -4 -14 -1 -21 10 -21 c 9 0 16 4 16 9 c 0 4 -4 8 -9 8 c -5 0 -7 10 -3 22 c 5 22 6 22 15 -5 c 5 -15 13 -25 18 -21 c 10 6 -2 -30 -26 -75 c -14 -29 -45 -36 -53 -13 c -2 6 5 10 17 7 c 19 -3 20 7 4 38 c -2 4 -20 -16 -39 -44 c -37 -55 -45 -78 -15 -42 c 10 12 21 20 24 17 c 8 -8 -32 -46 -42 -39 c -5 2 -14 -2 -21 -10 c -7 -8 -17 -15 -21 -15 c -5 0 9 24 32 53 c 60 74 89 144 96 227 c 6 69 1 91 -11 48 z m -3 -261 c 4 3 7 1 7 -5 c 0 -6 -4 -14 -10 -17 c -5 -3 -10 -11 -10 -17 c 0 -7 6 -6 15 2 c 8 7 15 9 15 4 c 0 -14 -100 -124 -113 -124 c -6 0 11 22 38 50 c 40 40 46 52 36 64 c -8 10 -9 16 -1 21 c 8 5 7 12 -2 23 c -11 15 -11 15 3 5 c 9 -7 19 -10 22 -6 z" stroke-linecap="round"/>
</g>
		<g transform="matrix(0.1333 0 0 -0.1333 -47.0734 0.4396)">
<path style="stroke: none; stroke-width: 1; stroke-dasharray: none; stroke-linecap: butt; stroke-dashoffset: 0; stroke-linejoin: miter; stroke-miterlimit: 4; is-custom-font: none; font-file-url: none; fill: rgb(0,0,0); fill-rule: nonzero; opacity: 1;" transform=" translate(-1146.9682, -1496.6612)" d="M 1073 1605 c 6 -88 42 -168 109 -239 c 51 -53 54 -47 8 14 c -36 47 -93 150 -84 150 c 5 0 3 5 -4 12 c -7 7 -12 32 -12 58 c 0 25 -5 52 -11 60 c -8 11 -9 -4 -6 -55 z" stroke-linecap="round"/>
</g>
		<g transform="matrix(0.1333 0 0 -0.1333 -63.2608 -6.0993)">
<path style="stroke: none; stroke-width: 1; stroke-dasharray: none; stroke-linecap: butt; stroke-dashoffset: 0; stroke-linejoin: miter; stroke-miterlimit: 4; is-custom-font: none; font-file-url: none; fill: rgb(0,0,0); fill-rule: nonzero; opacity: 1;" transform=" translate(-1025.552, -1545.7244)" d="M 999 1627 c 0 -1 -2 -13 -5 -27 c -3 -23 -3 -23 10 -7 c 20 26 30 20 12 -8 c -19 -29 -21 -55 -3 -55 c 8 0 7 -4 -3 -10 c -10 -6 -11 -10 -2 -10 c 6 0 11 -3 11 -7 c -4 -22 2 -43 10 -38 c 11 6 10 45 -1 45 c -4 0 -5 7 -2 15 c 4 8 1 15 -5 15 c -17 0 -13 23 10 50 c 13 16 19 19 15 8 c -3 -10 0 -20 5 -24 c 7 -4 9 3 7 17 c -2 15 -12 25 -30 30 c -16 4 -28 7 -29 6 z" stroke-linecap="round"/>
</g>
		<g transform="matrix(0.1333 0 0 -0.1333 -87.2495 -9.6854)">
<path style="stroke: none; stroke-width: 1; stroke-dasharray: none; stroke-linecap: butt; stroke-dashoffset: 0; stroke-linejoin: miter; stroke-miterlimit: 4; is-custom-font: none; font-file-url: none; fill: rgb(0,0,0); fill-rule: nonzero; opacity: 1;" transform=" translate(-845.6328, -1572.63)" d="M 832 1581 c 2 -29 8 -46 18 -48 c 12 -4 13 -3 1 5 c -8 6 -12 20 -9 35 c 3 14 1 32 -4 39 c -5 8 -7 -3 -6 -31 z" stroke-linecap="round"/>
</g>
		<g transform="matrix(0.1333 0 0 -0.1333 -55.5241 12.9456)">
<path style="stroke: none; stroke-width: 1; stroke-dasharray: none; stroke-linecap: butt; stroke-dashoffset: 0; stroke-linejoin: miter; stroke-miterlimit: 4; is-custom-font: none; font-file-url: none; fill: rgb(0,0,0); fill-rule: nonzero; opacity: 1;" transform=" translate(-1083.6026, -1402.8582)" d="M 963 1594 c -15 -15 -17 -28 -5 -20 c 10 6 9 -24 -1 -41 c -4 -6 -2 -15 4 -19 c 8 -4 9 -3 5 4 c -4 7 -2 12 3 12 c 6 0 11 -6 12 -12 c 1 -22 7 -42 20 -73 c 7 -16 11 -34 10 -38 c -1 -5 3 -6 9 -2 c 5 3 11 1 11 -4 c 3 -22 5 -27 24 -50 c 89 -107 162 -168 162 -136 c 0 8 -5 12 -10 8 c -14 -8 -114 95 -153 158 c -39 64 -63 125 -72 185 c -6 34 -9 39 -19 28 z" stroke-linecap="round"/>
</g>
		<g transform="matrix(0.1333 0 0 -0.1333 70.5931 0.4152)">
<path style="stroke: none; stroke-width: 1; stroke-dasharray: none; stroke-linecap: butt; stroke-dashoffset: 0; stroke-linejoin: miter; stroke-miterlimit: 4; is-custom-font: none; font-file-url: none; fill: rgb(0,0,0); fill-rule: nonzero; opacity: 1;" transform=" translate(-2029.4607, -1496.8588)" d="M 2037 1568 c -4 -26 -20 -77 -36 -113 c -22 -48 -26 -65 -16 -65 c 19 0 34 28 28 51 c -4 14 0 19 13 19 c 16 0 17 2 4 10 c -10 6 -11 10 -2 10 c 6 0 11 6 10 13 c -2 6 2 11 9 10 c 17 -4 27 35 13 52 c -7 8 -7 15 -1 19 c 5 3 12 0 14 -6 c 3 -8 6 -6 6 5 c 1 9 -5 17 -13 17 c -8 0 -16 6 -18 12 c -3 7 -8 -8 -11 -34 z" stroke-linecap="round"/>
</g>
		<g transform="matrix(0.1333 0 0 -0.1333 -51.4991 13.0955)">
<path style="stroke: none; stroke-width: 1; stroke-dasharray: none; stroke-linecap: butt; stroke-dashoffset: 0; stroke-linejoin: miter; stroke-miterlimit: 4; is-custom-font: none; font-file-url: none; fill: rgb(0,0,0); fill-rule: nonzero; opacity: 1;" transform=" translate(-1113.7798, -1401.7443)" d="M 1033 1553 c 11 -3 16 -11 13 -19 c -3 -9 -1 -12 4 -9 c 6 4 9 -4 7 -17 c -1 -14 3 -22 11 -20 c 6 1 12 -3 12 -9 c 0 -6 -6 -9 -14 -6 c -8 3 -20 -1 -26 -8 c -9 -11 -4 -26 23 -72 c 36 -59 126 -157 135 -148 c 3 3 -2 13 -11 22 c -13 15 -13 21 -3 35 c 7 10 17 14 21 10 c 5 -4 -10 16 -34 43 c -24 28 -49 62 -57 78 c -15 28 -27 38 -18 14 c 3 -8 -2 -14 -11 -14 c -8 0 -15 5 -15 11 c 0 6 -4 5 -9 -3 c -6 -9 -11 -10 -15 -2 c -4 6 4 15 19 21 c 15 6 25 13 23 18 c -2 4 -10 24 -18 45 c -10 27 -20 37 -35 36 c -17 -1 -18 -2 -2 -6 z m 63 -139 c 7 18 8 17 18 -2 c 6 -11 26 -36 44 -56 c 35 -39 32 -49 -5 -14 c -28 26 -31 10 -3 -20 c 12 -12 16 -23 10 -27 c -6 -3 -10 -2 -10 4 c 0 6 -12 22 -27 37 c -32 32 -63 75 -63 88 c 0 6 6 1 14 -10 c 14 -18 15 -18 22 0 z" stroke-linecap="round"/>
</g>
		<g transform="matrix(0.1333 0 0 -0.1333 60.6334 4.6152)">
<path style="stroke: none; stroke-width: 1; stroke-dasharray: none; stroke-linecap: butt; stroke-dashoffset: 0; stroke-linejoin: miter; stroke-miterlimit: 4; is-custom-font: none; font-file-url: none; fill: rgb(0,0,0); fill-rule: nonzero; opacity: 1;" transform=" translate(-1954.7567, -1465.3804)" d="M 1930 1481 c 0 -3 7 -14 15 -24 c 13 -18 14 -18 24 2 c 16 29 13 38 -4 15 c -10 -13 -13 -14 -10 -3 c 4 10 0 16 -10 16 c -8 0 -15 -3 -15 -6 z" stroke-linecap="round"/>
</g>
		<g transform="matrix(0.1333 0 0 -0.1333 5.8971 38.9474)">
<path style="stroke: none; stroke-width: 1; stroke-dasharray: none; stroke-linecap: butt; stroke-dashoffset: 0; stroke-linejoin: miter; stroke-miterlimit: 4; is-custom-font: none; font-file-url: none; fill: rgb(0,0,0); fill-rule: nonzero; opacity: 1;" transform=" translate(-1544.2773, -1207.8562)" d="M 1730 1346 c 0 -25 -75 -82 -131 -100 c -91 -29 -196 -84 -223 -117 c -27 -32 -39 -93 -13 -67 c 13 13 30 46 31 62 c 1 5 7 11 15 14 c 9 3 11 0 6 -8 c -5 -9 -4 -11 4 -6 c 6 4 8 12 5 18 c -5 7 -1 9 9 5 c 10 -4 16 -2 14 6 c -1 7 8 12 20 11 c 12 0 20 3 18 7 c -6 8 26 22 33 14 c 3 -3 -1 -5 -8 -5 c -7 0 -11 -2 -8 -5 c 8 -9 38 6 32 16 c -3 5 -3 9 -1 9 c 3 0 21 7 41 15 c 20 8 36 13 36 10 c 0 -3 -14 -11 -31 -17 c -16 -6 -28 -13 -25 -15 c 8 -8 96 39 90 48 c -3 5 1 6 9 3 c 18 -6 87 69 87 96 c 0 11 -2 20 -5 20 c -3 0 -5 -6 -5 -14 z" stroke-linecap="round"/>
</g>
		<g transform="matrix(0.1333 0 0 -0.1333 55.8864 49.0553)">
<path style="stroke: none; stroke-width: 1; stroke-dasharray: none; stroke-linecap: butt; stroke-dashoffset: 0; stroke-linejoin: miter; stroke-miterlimit: 4; is-custom-font: none; font-file-url: none; fill: rgb(0,0,0); fill-rule: nonzero; opacity: 1;" transform=" translate(-1919.1901, -1132.0507)" d="M 2075 1260 c -4 -6 -11 -8 -16 -4 c -5 3 -8 0 -7 -8 c 2 -7 -4 -12 -12 -10 c -8 2 -12 1 -8 -3 c 8 -8 -3 -23 -57 -79 c -48 -49 -95 -88 -95 -79 c 0 3 -8 -1 -18 -10 c -10 -10 -22 -14 -25 -10 c -4 3 -7 1 -7 -5 c 0 -6 -18 -21 -40 -32 c -51 -26 -52 -35 -2 -15 c 61 26 143 84 203 145 c 54 55 105 120 95 120 c -3 0 -8 -5 -11 -10 z" stroke-linecap="round"/>
</g>
		<g transform="matrix(0.1333 0 0 -0.1333 61.0539 75.21)">
<path style="stroke: none; stroke-width: 1; stroke-dasharray: none; stroke-linecap: butt; stroke-dashoffset: 0; stroke-linejoin: miter; stroke-miterlimit: 4; is-custom-font: none; font-file-url: none; fill: rgb(0,0,0); fill-rule: nonzero; opacity: 1;" transform=" translate(-1957.9685, -935.8849)" d="M 2163 1065 c -74 -96 -256 -212 -408 -261 c -64 -21 -71 -30 -21 -24 c 11 1 47 15 80 31 c 33 16 66 27 74 24 c 7 -2 11 -1 8 4 c -7 11 22 23 35 15 c 5 -3 17 0 26 6 c 15 9 14 10 -7 5 c -21 -6 -20 -3 8 15 c 26 16 37 18 48 10 c 10 -9 12 -8 9 7 c -3 19 40 54 73 59 c 18 3 85 55 78 61 c -2 3 9 17 26 32 c 26 23 28 28 15 39 c -13 11 -20 7 -44 -23 z" stroke-linecap="round"/>
</g>
		<g transform="matrix(0.1333 0 0 -0.1333 56.6925 79.2139)">
<path style="stroke: none; stroke-width: 1; stroke-dasharray: none; stroke-linecap: butt; stroke-dashoffset: 0; stroke-linejoin: miter; stroke-miterlimit: 4; is-custom-font: none; font-file-url: none; fill: rgb(0,0,0); fill-rule: nonzero; opacity: 1;" transform=" translate(-1925.2015, -905.8902)" d="M 1929 922 c -1 -4 -1 -11 0 -15 c 1 -5 -8 -6 -19 -2 c -15 5 -18 3 -14 -9 c 6 -15 14 -14 52 12 c 11 8 11 10 -2 15 c -9 4 -17 3 -17 -1 z" stroke-linecap="round"/>
</g>
</g>
</g>
</svg>